<?xml version="1.0" standalone="no"?>
<!DOCTYPE svg PUBLIC "-//W3C//DTD SVG 20010904//EN"
 "http://www.w3.org/TR/2001/REC-SVG-20010904/DTD/svg10.dtd">
<svg version="1.0" xmlns="http://www.w3.org/2000/svg"
 width="90.000000pt" height="90.000000pt" viewBox="0 0 90.000000 90.000000"
 preserveAspectRatio="xMidYMid meet">

<g transform="translate(0.000000,90.000000) scale(0.100000,-0.100000)"
fill="#000000" stroke="none">
<path d="M234 826 c-13 -34 4 -47 53 -44 44 3 48 5 48 28 0 23 -4 25 -48 28
-35 2 -49 -1 -53 -12z"/>
<path d="M726 809 c-20 -17 -52 -53 -71 -79 -35 -48 -36 -50 -19 -75 12 -18
22 -24 35 -20 20 7 26 -9 9 -20 -10 -6 18 -54 31 -55 10 0 87 175 95 214 7 38
-7 66 -32 66 -7 0 -29 -14 -48 -31z m-6 -114 c-7 -8 -16 -15 -21 -15 -5 0 -9
7 -9 15 0 9 9 15 21 15 18 0 19 -2 9 -15z"/>
<path d="M240 679 c0 -35 -6 -47 -40 -78 -22 -20 -42 -48 -46 -63 l-6 -28 137
0 137 0 -6 28 c-4 15 -24 43 -46 63 -34 31 -40 43 -40 78 l0 41 -45 0 -45 0 0
-41z"/>
<path d="M443 692 l-41 -27 29 -33 c16 -18 35 -53 41 -77 l12 -45 88 0 c48 0
88 3 88 6 0 9 -131 188 -144 196 -18 12 -29 9 -73 -20z"/>
<path d="M94 435 c-12 -31 4 -44 58 -47 49 -3 53 -5 53 -28 0 -22 -5 -25 -41
-28 l-41 -3 -18 -104 c-10 -57 -15 -111 -12 -119 6 -14 49 -16 357 -16 308 0
351 2 357 16 3 8 -2 62 -12 119 l-18 105 -221 2 -221 3 0 25 0 25 235 5 235 5
0 25 0 25 -353 3 c-307 2 -353 0 -358 -13z"/>
</g>
</svg>
