<svg xmlns="http://www.w3.org/2000/svg" viewBox="0 0 512 512"><title>Shorts</title><g id="Shorts"><path d="M422.57,356.4038,382.417,123.9014a5.5006,5.5006,0,0,0-5.42-4.564H135.0029a5.5006,5.5006,0,0,0-5.42,4.564L89.43,356.4038a5.5,5.5,0,0,0,4.3188,6.3247l145.9463,29.8228a5.5,5.5,0,0,0,6.521-4.4527L256,331.4447l9.7843,56.6539.0091.0063a5.4994,5.4994,0,0,0,6.5193,4.4464l-.0016-.0011,145.941-29.8217A5.5006,5.5006,0,0,0,422.57,356.4038ZM139.6343,130.3374H372.3652l17.1838,99.498a57.3294,57.3294,0,0,1-54.3166-57.1831V157.4351h23.583a5.5,5.5,0,0,0,0-11h-205.63a5.5,5.5,0,0,0,0,11h24.0185v15.2172a57.3222,57.3222,0,0,1-54.7545,57.1944ZM275.6592,380.6387,261.42,298.19l-10.146-58.7485a5.5,5.5,0,1,0-10.84,1.8721l9.9843,57.8125-14.0771,81.5127-135.1641-27.62L120.541,240.895a68.3277,68.3277,0,0,0,67.6626-68.2427V157.4351H324.2324v15.2172A68.3249,68.3249,0,0,0,391.457,240.884l19.3662,112.135Z"/></g></svg>