<svg xmlns="http://www.w3.org/2000/svg" viewBox="0 0 512 512"><title>Jeans</title><g id="Jeans"><path d="M425.4609,273.7827,351.5322,199.854a5.5,5.5,0,0,0-7.5166-.2451l-58.2793,51.1392V73.7954a5.5,5.5,0,0,0-5.5-5.5H130.4658a5.5,5.5,0,0,0-5.5,5.5V107.82l-39.644,99.0915a5.4989,5.4989,0,0,0-.2871,3.12l45.7646,229.25a5.5,5.5,0,0,0,5.3936,4.4233H280.2363a14.5125,14.5125,0,0,0,5.7715-3.2031L425.7061,281.2993A5.5,5.5,0,0,0,425.4609,273.7827ZM135.9658,79.2954H274.7363v24.084H135.9658Zm142.249,353.4092H140.7036L96.1416,209.4805l38.0476-95.1011H274.7363V403.2a5.5,5.5,0,0,0,11,0V265.3828l61.6612-54.1069,66.6416,66.6416Z"/><path d="M233.394,156.748H152.2529a5.5,5.5,0,0,0-5.5,5.5v68.1939a5.4993,5.4993,0,0,0,2.7959,4.7891l40.57,22.9077a5.4983,5.4983,0,0,0,5.4082,0l40.5708-22.9077a5.4991,5.4991,0,0,0,2.7959-4.7891V195.115c0-.0077,0-.0153,0-.023V162.248A5.5,5.5,0,0,0,233.394,156.748Zm-5.5,70.4834-35.0708,19.8018-35.07-19.8018V198.8627l3.6509-1.3114a19.66,19.66,0,0,1,18.7173,2.937l9.3462,7.1972a5.5,5.5,0,0,0,6.7378-.02l8.9414-6.9721a19.707,19.707,0,0,1,18.3472-3.1714l4.4,1.4579Zm0-39.8392-.94-.3116a30.6779,30.6779,0,0,0-28.5713,4.9384l-5.58,4.3511-5.97-4.5972a30.61,30.61,0,0,0-29.08-4.5961V167.748H227.894Z"/></g></svg>