<svg xmlns="http://www.w3.org/2000/svg" viewBox="0 0 512 512"><title>T-Shirt</title><g id="T-Shirt"><path d="M203.1943,127.92a5.5,5.5,0,0,0-3.7763,6.8,58.8622,58.8622,0,0,0,113.164,0,5.5,5.5,0,1,0-10.5761-3.0239,47.8623,47.8623,0,0,1-92.0118,0A5.5,5.5,0,0,0,203.1943,127.92Z"/><path d="M356.8,194.1133a5.5009,5.5009,0,0,0-6.8438,3.6963l-6.7871,22.727a5.5061,5.5061,0,0,0-.23,1.5738V392.35l-174.0137-.4038V221.6807a5.5067,5.5067,0,0,0-.23-1.5738l-6.7871-22.727a5.5,5.5,0,1,0-10.54,3.1474l6.5571,21.9571V397.4336a5.5,5.5,0,0,0,5.4873,5.5l185.0137.4292h.0127a5.5,5.5,0,0,0,5.5-5.5V222.9141l6.5571-21.9571A5.5,5.5,0,0,0,356.8,194.1133Z"/><path d="M447.1758,209.59l-75.0586-75.0815q-.85-.85-1.7207-1.6773A88.9709,88.9709,0,0,0,309.57,108.6929l-5.5288-.0469h-.0473a5.5,5.5,0,0,0-.0459,11l5.5288.0469a78.0037,78.0037,0,0,1,53.3457,21.1157q.7646.7266,1.5141,1.4761l71.1724,71.1938-48.7974,48.7969L370.2759,245.84a5.5,5.5,0,0,0-7.7783,7.7784l20.3247,20.3247a5.5,5.5,0,0,0,7.7783,0l56.5747-56.5747A5.5,5.5,0,0,0,447.1758,209.59Z"/><path d="M142.1084,245.4556l-16.82,16.82L76.4912,213.4785l71.1719-71.1933q.7485-.7494,1.5137-1.4751a78.0023,78.0023,0,0,1,53.3471-21.1172l6.5523-.0557a5.5,5.5,0,0,0-.0459-11h-.0479l-6.5522.0557a88.9706,88.9706,0,0,0-60.8277,24.14q-.8686.8247-1.7182,1.6743l-75.06,75.083a5.5,5.5,0,0,0,.0005,7.7779l56.5747,56.5747a5.5,5.5,0,0,0,7.7783,0l20.709-20.709a5.5,5.5,0,0,0-7.7783-7.7783Z"/></g></svg>