<svg id="Layer_2" data-name="Layer 2" xmlns="http://www.w3.org/2000/svg" viewBox="0 0 128 128"><title>GRAMOPHONE</title><path d="M92.307,48.515a1.75,1.75,0,0,0,1.75-1.75V44.09a1.75,1.75,0,0,0-3.5,0v2.675A1.75,1.75,0,0,0,92.307,48.515Z"/><path d="M95.565,51.968H98.24a1.75,1.75,0,0,0,0-3.5H95.565a1.75,1.75,0,0,0,0,3.5Z"/><path d="M92.111,51.727a1.75,1.75,0,0,0-1.75,1.75v2.676a1.75,1.75,0,0,0,3.5,0V53.477A1.75,1.75,0,0,0,92.111,51.727Z"/><path d="M86.178,51.773h2.675a1.75,1.75,0,0,0,0-3.5H86.178a1.75,1.75,0,0,0,0,3.5Z"/><path d="M95.833,18.325H32.167a9.823,9.823,0,0,0-9.812,9.812V43.973c0-.026.008-.05.011-.076-.737,6.64-4.173,10.075-10.813,10.813a1.75,1.75,0,0,0,0,3.479c6.641.738,10.076,4.174,10.813,10.814,0-.026-.008-.05-.011-.076V99.863a9.823,9.823,0,0,0,9.812,9.812H95.833a9.823,9.823,0,0,0,9.812-9.812V28.137A9.823,9.823,0,0,0,95.833,18.325ZM25.855,28.137a6.318,6.318,0,0,1,6.312-6.312H95.833a6.318,6.318,0,0,1,6.312,6.312V36.22H25.855Zm-7.7,28.313A13.058,13.058,0,0,0,24.105,50.5a13.074,13.074,0,0,0,5.955,5.954A13.067,13.067,0,0,0,24.105,62.4,13.06,13.06,0,0,0,18.151,56.449Zm83.993,43.414a6.318,6.318,0,0,1-6.312,6.312H32.167a6.318,6.318,0,0,1-6.312-6.312V68.927c.757-6.588,4.19-10,10.8-10.738a1.75,1.75,0,0,0,0-3.479c-6.613-.735-10.047-4.149-10.8-10.737V39.72h76.289Z"/><path d="M64,100.03A27.083,27.083,0,1,0,36.917,72.947,27.114,27.114,0,0,0,64,100.03Zm0-50.667A23.583,23.583,0,1,1,40.417,72.947,23.61,23.61,0,0,1,64,49.363Z"/><path d="M44.1,78.576c0,.015,0,.03.007.044s.013.037.018.055c.124.428.267.846.417,1.263.06.167.119.334.183.5q.226.579.485,1.139c.082.177.167.351.254.526.182.367.368.73.571,1.084.082.144.172.282.257.423a20.8,20.8,0,0,0,2.771,3.629l.025.028c.337.35.69.683,1.05,1.009.072.065.141.131.214.195.359.316.729.617,1.109.908.069.053.138.1.208.155.4.3.809.587,1.232.857l.014.009a20.612,20.612,0,0,0,4.161,2.031c.126.045.25.1.377.138.362.121.729.226,1.1.327.252.069.5.135.758.2.315.073.632.142.952.2.354.066.712.117,1.071.164.251.032.5.071.753.095.632.059,1.269.1,1.912.1a20.721,20.721,0,0,0,20.7-20.7c0-.626-.038-1.247-.095-1.866-.017-.19-.039-.378-.061-.566q-.081-.679-.207-1.35c-.033-.177-.059-.355-.1-.53q-.178-.831-.424-1.644c-.068-.225-.148-.444-.223-.666-.115-.34-.238-.677-.371-1.011-.1-.248-.2-.494-.307-.736-.147-.33-.307-.653-.471-.976-.144-.283-.289-.564-.446-.839-.2-.349-.4-.7-.618-1.035-.009-.014-.024-.022-.033-.036A20.668,20.668,0,0,0,44.1,78.576ZM64,90.145c-.522,0-1.037-.033-1.547-.078-.181-.017-.361-.039-.541-.061-.321-.039-.639-.089-.955-.146-.216-.039-.432-.075-.646-.123-.266-.058-.526-.132-.787-.2-.479-.131-.95-.279-1.413-.449-.125-.046-.252-.089-.375-.138q-.484-.191-.954-.411c-.082-.038-.163-.078-.244-.118a17.362,17.362,0,0,1-2.966-1.827l-.075-.056c-.3-.232-.59-.474-.873-.725-.051-.045-.1-.092-.152-.138A17.313,17.313,0,0,1,50.227,83.2c-.07-.094-.143-.187-.211-.282-.189-.264-.369-.535-.544-.81-.078-.123-.153-.249-.228-.375-.169-.283-.337-.566-.49-.859v0q-.291-.558-.542-1.14c13.64-1.153,19.418-5.97,24.548-10.245a33.349,33.349,0,0,1,6.434-4.575c.19.358.365.725.53,1.1.081.182.157.367.231.552.136.338.262.68.377,1.028.058.176.112.354.164.531q.16.544.284,1.1c.032.143.065.285.093.428.09.463.163.931.215,1.406.012.111.021.222.031.333.046.514.079,1.032.079,1.558A17.217,17.217,0,0,1,64,90.145ZM64,55.75a17.168,17.168,0,0,1,13.242,6.239A38.166,38.166,0,0,0,70.518,66.8c-4.817,4.016-10.279,8.536-23.383,9.494A17.18,17.18,0,0,1,64,55.75Z"/><path d="M92.209,22.882a6.141,6.141,0,1,0,6.141,6.141A6.148,6.148,0,0,0,92.209,22.882Zm0,8.781a2.641,2.641,0,1,1,2.641-2.641A2.644,2.644,0,0,1,92.209,31.663Z"/><path d="M34.627,22.882a6.141,6.141,0,1,0,6.14,6.141A6.148,6.148,0,0,0,34.627,22.882Zm0,8.781a2.641,2.641,0,1,1,2.64-2.641A2.644,2.644,0,0,1,34.627,31.663Z"/><path d="M48.432,22.882a6.141,6.141,0,1,0,6.141,6.141A6.148,6.148,0,0,0,48.432,22.882Zm0,8.781a2.641,2.641,0,1,1,2.641-2.641A2.644,2.644,0,0,1,48.432,31.663Z"/><path d="M79.53,24.329H68.923a3.947,3.947,0,0,0,0,7.894H79.53a3.947,3.947,0,0,0,0-7.894Zm0,4.394H68.923a.447.447,0,0,1,0-.894H79.53a.447.447,0,0,1,0,.894Z"/></svg>