<svg xmlns="http://www.w3.org/2000/svg" viewBox="0 0 512 512"><title>Notebook</title><g id="Notebook"><g id="Notebook-2" data-name="Notebook"><path d="M373.6648,140.8663h-235.73V289.4571h235.73ZM353.5494,269.3427H158.0458V160.9759H353.5494Z"/><path d="M445.3823,371.3022l-43.859-63.2447a33.3434,33.3434,0,0,0,5.6575-18.6V140.8663a33.5534,33.5534,0,0,0-33.516-33.516h-235.73a33.55,33.55,0,0,0-33.516,33.516V289.4571a33.36,33.36,0,0,0,5.6575,18.61l-43.859,63.2351ZM124.53,140.8663A13.42,13.42,0,0,1,137.9352,127.46h235.73a13.4193,13.4193,0,0,1,13.4006,13.4064V289.4571a13.4184,13.4184,0,0,1-13.4006,13.4054h-235.73A13.4194,13.4194,0,0,1,124.53,289.4571Zm-.3227,182.1068H387.3977l19.5676,28.2234H104.6385Z"/><rect x="65.3156" y="384.5391" width="380.9687" height="20.1106"/></g></g></svg>