<?xml version="1.0" encoding="utf-8"?>
<!-- Generator: Adobe Illustrator 16.0.0, SVG Export Plug-In . SVG Version: 6.00 Build 0)  -->
<!DOCTYPE svg PUBLIC "-//W3C//DTD SVG 1.0//EN" "http://www.w3.org/TR/2001/REC-SVG-20010904/DTD/svg10.dtd">
<svg version="1.0" id="Layer_1" xmlns="http://www.w3.org/2000/svg" xmlns:xlink="http://www.w3.org/1999/xlink" x="0px" y="0px"
	 width="100px" height="100px" viewBox="0 0 100 100" enable-background="new 0 0 100 100" xml:space="preserve">
<polygon fill="none" stroke="#000000" stroke-width="2" stroke-linecap="round" stroke-linejoin="round" stroke-miterlimit="10" points="
	60.563,10 50.002,20.563 39.439,10 "/>
<path fill="none" stroke="#000000" stroke-width="2" stroke-linecap="round" stroke-linejoin="round" stroke-miterlimit="10" d="
	M45.52,29.705l4.482-9.142L39.439,10c-3.419,3.417-3.419,8.957,0,12.373L45.52,29.705z"/>
<path fill="none" stroke="#000000" stroke-width="2" stroke-linecap="round" stroke-linejoin="round" stroke-miterlimit="10" d="
	M54.48,29.705l-4.479-9.142L60.563,10c3.416,3.417,3.416,8.957,0,12.373L54.48,29.705z"/>
<polygon fill="none" stroke="#000000" stroke-width="2" stroke-linecap="round" stroke-linejoin="round" stroke-miterlimit="10" points="
	25.001,40 27.499,65 27.187,67.5 27.499,65 "/>
<polygon fill="none" stroke="#000000" stroke-width="2" stroke-linecap="round" stroke-linejoin="round" stroke-miterlimit="10" points="
	74.999,40 72.5,65 72.812,67.5 72.5,65 "/>
<polygon fill="none" stroke="#000000" stroke-width="2" stroke-linecap="round" stroke-linejoin="round" stroke-miterlimit="10" points="
	27.187,67.5 14.63,67.5 15,75 26.25,75 "/>
<path fill="none" stroke="#000000" stroke-width="2" stroke-linecap="round" stroke-linejoin="round" stroke-miterlimit="10" d="
	M50,90l-24.999-5l2.186-17.5H14.63l-1.759-35.634c-0.205-4.118,2.891-8.359,6.876-9.422l17.286-4.609
	c0.316,1.662,1.117,3.252,2.406,4.539l6.08,7.331l4.482-9.142L50,90z"/>
<polygon fill="none" stroke="#000000" stroke-width="2" stroke-linecap="round" stroke-linejoin="round" stroke-miterlimit="10" points="
	72.812,67.5 85.37,67.5 85,75 73.748,75 "/>
<path fill="none" stroke="#000000" stroke-width="2" stroke-linecap="round" stroke-linejoin="round" stroke-miterlimit="10" d="
	M50,90l24.999-5l-2.188-17.5H85.37l1.759-35.634c0.203-4.118-2.891-8.359-6.876-9.422l-17.286-4.609
	c-0.318,1.662-1.117,3.252-2.404,4.539l-6.082,7.331l-4.479-9.142L50,90z"/>
<polygon fill="none" stroke="#000000" stroke-width="2" stroke-linecap="round" stroke-linejoin="round" stroke-miterlimit="10" points="
	67.499,47.5 62.499,50 57.498,47.5 57.498,37.5 67.499,37.5 "/>
</svg>
