<?xml version="1.0" encoding="utf-8"?>
<!-- Generator: Adobe Illustrator 16.0.0, SVG Export Plug-In . SVG Version: 6.00 Build 0)  -->
<!DOCTYPE svg PUBLIC "-//W3C//DTD SVG 1.0//EN" "http://www.w3.org/TR/2001/REC-SVG-20010904/DTD/svg10.dtd">
<svg version="1.0" id="Layer_1" xmlns="http://www.w3.org/2000/svg" xmlns:xlink="http://www.w3.org/1999/xlink" x="0px" y="0px"
	 width="100px" height="100px" viewBox="0 0 100 100" enable-background="new 0 0 100 100" xml:space="preserve">
<path fill="none" stroke="#000000" stroke-width="2" stroke-linecap="round" stroke-linejoin="round" stroke-miterlimit="10" d="
	M75,12.371v6.337c-17.043-3.39-33.949-3.218-50-0.022v-6.337C41.555,9.21,58.363,9.217,75,12.371z"/>
<polygon fill="none" stroke="#000000" stroke-width="2" stroke-linecap="round" stroke-linejoin="round" stroke-miterlimit="10" points="
	43.524,82.498 42.501,90 25,90 25,82.498 "/>
<polygon fill="none" stroke="#000000" stroke-width="2" stroke-linecap="round" stroke-linejoin="round" stroke-miterlimit="10" points="
	75,82.498 75,90 57.5,90 56.478,82.498 "/>
<path fill="none" stroke="#000000" stroke-width="2" stroke-linecap="round" stroke-linejoin="round" stroke-miterlimit="10" d="
	M25,31.007c6.893-1.161,12.178-7.011,12.47-14.164c-4.204,0.414-8.366,1.026-12.47,1.842V31.007z"/>
<path fill="none" stroke="#000000" stroke-width="2" stroke-linecap="round" stroke-linejoin="round" stroke-miterlimit="10" d="
	M75,31.003c-6.889-1.157-12.17-7-12.468-14.144c4.142,0.412,8.299,1.021,12.468,1.849V31.003z"/>
<path fill="none" stroke="#000000" stroke-width="2" stroke-linecap="round" stroke-linejoin="round" stroke-miterlimit="10" d="
	M43.524,82.498l6.477-47.515V16.236c-4.212-0.002-8.393,0.201-12.531,0.607C37.178,23.997,31.893,29.846,25,31.007v51.491H43.524z"
	/>
<path fill="none" stroke="#000000" stroke-width="2" stroke-linecap="round" stroke-linejoin="round" stroke-miterlimit="10" d="
	M56.478,82.498l-6.477-47.515c3.452,0,6.251-2.798,6.251-6.251V16.393c2.088,0.104,4.181,0.259,6.28,0.467
	C62.83,24.003,68.111,29.846,75,31.003v51.495H56.478z"/>
<path fill="none" stroke="#000000" stroke-width="2" stroke-linecap="round" stroke-linejoin="round" stroke-miterlimit="10" d="
	M50.001,34.983c3.452,0,6.251-2.798,6.251-6.251V16.393c-2.092-0.104-4.174-0.154-6.251-0.156V34.983z"/>
</svg>
