<svg xmlns="http://www.w3.org/2000/svg" viewBox="0 0 512 512"><title>TV</title><g id="TV"><g id="TV-2" data-name="TV"><path d="M367.7349,203.0154H267.6668l71.98-71.98L328.673,120.0661,257.3638,191.37l-71.3025-71.3036-10.98,10.9694,71.98,71.98H144.2651a19.0285,19.0285,0,0,0-19.0259,19.03V372.9091a19.0273,19.0273,0,0,0,19.0259,19.0248h223.47a19.02,19.02,0,0,0,19.0259-19.0248V222.0458A19.0214,19.0214,0,0,0,367.7349,203.0154Zm-46.49,163.2775H150.8913V228.6675H321.2451Zm35.7865-98.0867H341.1847V252.6841h15.8469Zm0-24.58H341.1847V228.0987h15.8469Z"/></g></g></svg>