<svg xmlns="http://www.w3.org/2000/svg" viewBox="0 0 512 512"><title>Dress</title><g id="Dress"><path d="M436.3262,408.8306,315.7979,211.853l14.8779-48.5268a347.1571,347.1571,0,0,0,15.26-101.8389A5.5,5.5,0,0,0,342.05,56.23L322.375,50.188a194.5754,194.5754,0,0,0-24.7578-7.1626,5.5008,5.5008,0,0,0-6.6748,5.373V79.082a34.6915,34.6915,0,0,1-1.7117,10.7543c-6.9072,1.6056-14.5617,4.4442-20.954,9.4357h-24.554c-6.3924-4.9914-14.0465-7.83-20.9534-9.4355a34.6927,34.6927,0,0,1-1.7117-10.7545V48.4893a5.5,5.5,0,0,0-6.687-5.37,194.6839,194.6839,0,0,0-23.6309,6.815l-20.77,6.2895a5.5009,5.5009,0,0,0-3.9057,5.2642,347.1405,347.1405,0,0,0,15.26,101.8384l14.877,48.5268L75.6743,408.8306a5.5,5.5,0,1,0,9.3828,5.7412L205.2686,218.11H281.21a5.5,5.5,0,0,0,0-11H206.2524l-14.4116-47.0083A336.126,336.126,0,0,1,177.0884,65.561l16.9726-5.1391c.09-.0274.1792-.0567.2671-.0884,5.1348-1.8462,10.4024-3.4746,15.73-4.8633V79.082a45.6364,45.6364,0,0,0,.8872,8.9347c-.3974-.0317-.8006-.065-1.1719-.09a13.8022,13.8022,0,0,0-14.7021,13.7779V135.522a13.8021,13.8021,0,0,0,13.8081,13.8071c.2974,0,.5962-.01.894-.0293,8.2609-.5427,23.2219-2.7862,34.2518-11.57a5.4614,5.4614,0,0,0,1.0253-.4154h21.9a5.457,5.457,0,0,0,1.0242.4151c11.03,8.7835,25.9911,11.0271,34.2521,11.57q.4482.0292.8935.0293a13.8029,13.8029,0,0,0,13.81-13.8071V101.7051a13.8031,13.8031,0,0,0-14.7031-13.7779c-.3711.0244-.7742.0577-1.1713.0894a45.6431,45.6431,0,0,0,.8871-8.9346V55.3628c5.6943,1.4707,11.3232,3.2153,16.8047,5.21q.1318.0477.2666.0894l15.8974,4.8823a336.0976,336.0976,0,0,1-14.7529,94.5567l-15.6035,50.896a5.5007,5.5007,0,0,0,.5674,4.4829L424.0664,409.8716l-3.2715,1.9931a316.699,316.699,0,0,1-314.22,8.7554,5.5,5.5,0,1,0-5.1924,9.6973,328.1464,328.1464,0,0,0,154.6988,38.7832q4.39,0,8.79-.1182a328.1874,328.1874,0,0,0,161.6465-47.7236l7.9785-4.8609a5.5,5.5,0,0,0,1.83-7.5673ZM236.9785,129.28c-9.05,7.0688-22.3677,8.6787-27.9263,9.0434a2.7455,2.7455,0,0,1-2.0922-.749,2.79,2.79,0,0,1-.8892-2.0522V101.7051a2.8025,2.8025,0,0,1,2.9814-2.8013c5.5586.3648,18.877,1.9746,27.9263,9.043Zm27.043-2.9649h-16.043V110.272h16.043Zm38.9258-27.4111a2.76,2.76,0,0,1,2.0927.7495,2.79,2.79,0,0,1,.89,2.0518V135.522a2.8041,2.8041,0,0,1-2.9824,2.8012c-5.5586-.3647-18.877-1.9746-27.9258-9.0434v-21.333C284.07,100.8784,297.3887,99.2686,302.9473,98.9038Z"/></g></svg>