<svg xmlns="http://www.w3.org/2000/svg" viewBox="0 0 512 512"><title>Pants</title><g id="Pants"><path d="M348.2842,76.7505H163.7158a5.5,5.5,0,0,0-5.5,5.5V429.75a5.5,5.5,0,0,0,5.5,5.5h67.49a5.499,5.499,0,0,0,5.4716-4.9468L256,239.2593l19.3223,191.0434a5.499,5.499,0,0,0,5.4716,4.9468h67.49a5.5,5.5,0,0,0,5.5-5.5V82.2505A5.5,5.5,0,0,0,348.2842,76.7505ZM192.1283,424.25H169.2158V111.99h31.66Zm93.6373,0L261.5,184.325V157.4775a5.5,5.5,0,1,0-11,0V184.325L226.2344,424.25H203.1331l8.7478-312.26H300.38l8.7478,312.26Zm57.0186,0H320.1324l-8.7479-312.26h31.4Zm0-323.26H169.2158V87.7505H342.7842Z"/></g></svg>