<?xml version="1.0" encoding="utf-8"?>
<!-- Generator: Adobe Illustrator 16.0.0, SVG Export Plug-In . SVG Version: 6.00 Build 0)  -->
<!DOCTYPE svg PUBLIC "-//W3C//DTD SVG 1.0//EN" "http://www.w3.org/TR/2001/REC-SVG-20010904/DTD/svg10.dtd">
<svg version="1.0" id="Layer_1" xmlns="http://www.w3.org/2000/svg" xmlns:xlink="http://www.w3.org/1999/xlink" x="0px" y="0px"
	 width="100px" height="100px" viewBox="0 0 100 100" enable-background="new 0 0 100 100" xml:space="preserve">
<rect x="46.667" y="10" width="6.666" height="13.333"/>
<rect x="10" y="46.667" width="13.333" height="6.666"/>
<rect x="76.667" y="46.667" width="13.333" height="6.666"/>
<rect x="11.226" y="73.773" transform="matrix(0.7071 -0.7071 0.7071 0.7071 -47.8149 38.7668)" width="23.333" height="6.666"/>
<rect x="65.439" y="19.56" transform="matrix(0.7071 -0.7071 0.7071 0.7071 6.3945 61.2255)" width="23.331" height="6.668"/>
<rect x="65.439" y="73.771" transform="matrix(-0.707 -0.7072 0.7072 -0.707 77.0973 186.1477)" width="23.334" height="6.666"/>
<rect x="11.229" y="19.558" transform="matrix(-0.7071 -0.7071 0.7071 -0.7071 22.8948 55.2682)" width="23.331" height="6.668"/>
<path d="M50,29.997c-11.025,0-19.993,8.968-20,19.997V50c0.003,5.335,2.083,10.352,5.859,14.134L40,68.281V90h20V68.281l4.141-4.147
	C67.917,60.352,69.997,55.335,70,50v-0.007C69.993,38.965,61.025,29.997,50,29.997z M53.333,83.333h-6.666v-6.666h6.666V83.333z
	 M63.333,50v-0.003c0,3.678-1.494,7.008-3.906,9.424l-4.144,4.146c-1.299,1.303-1.95,3.008-1.95,4.714V70h-6.666v-1.719
	c0-3.411,1.302-6.829,3.902-9.427c0-0.004,4.145-4.147,4.145-4.147c1.204-1.208,1.953-2.871,1.953-4.71
	c-0.004-3.682-2.985-6.664-6.667-6.664S43.333,46.318,43.333,50h-6.666c0-7.363,5.97-13.336,13.333-13.336s13.33,5.97,13.333,13.333
	v-0.004V50z"/>
</svg>
