<svg xmlns="http://www.w3.org/2000/svg" viewBox="0 0 512 512"><title>Heel</title><g id="Heel"><path d="M421.167,369.664v0c-67.0371-53.0557-101.4326-67.1577-102.8643-67.7319a5.5139,5.5139,0,0,0-5.664.9609c-.2676.2329-27.0723,23.2339-52.3867,15.7573-17.2027-5.08-30.3755-23.1138-39.1534-53.6015-35.0879-121.8711-72.5664-144.6143-74.145-145.523a5.4991,5.4991,0,0,0-4.4082-.4756c-23.6484,7.5093-40.21,22.3721-49.2241,44.1753-7.4854,18.1055-8.0508,37.26-7.2066,50.1406a88.4838,88.4838,0,0,0,4.5518,22.34c12.4067,36.8813,7.3193,150.6025,7.2666,151.7466a5.5,5.5,0,0,0,5.4941,5.7539h25.7842a5.5,5.5,0,0,0,5.499-5.61c-.9414-47.105.87-83.63,5.3829-108.562,4.0063-22.1323,9.143-29.5342,11.8481-31.9766a6.1636,6.1636,0,0,1,1.4136-.999c20.8388,25.9443,36.0879,64.8579,49.58,99.2881,3.1386,8.0083,6.1025,15.5722,9.1191,22.9643,3.1807,7.795,10.5093,14.316,21.1934,18.857a80.7147,80.7147,0,0,0,30.8784,6.0381H412.959a13.2021,13.2021,0,0,0,8.208-23.5435Zm-6.124,11.0566a2.09,2.09,0,0,1-2.084,1.4869H264.126c-19.3579,0-37.7569-7.9292-41.8872-18.0513-2.9873-7.3208-5.938-14.85-9.062-22.8218-14.0925-35.962-30.0623-76.7073-52.7479-103.9968-19.6-28.904-49.9887-41.598-51.2766-42.1253a5.5,5.5,0,0,0-4.1757,10.1763c.2614.108,24.1054,10.1339,41.7027,31.8724-16.6446,11.1482-24.4031,59.8818-23.067,144.9465H109.1572c.9068-24.15,3.4741-115.7056-8.0649-150.0074a77.4946,77.4946,0,0,1-4.001-19.5532c-1.59-24.2642,2.4033-66.7622,46.165-82.2339,7.6944,6.312,38.1514,36.5352,67.272,137.6792,9.8946,34.3682,25.5957,54.9336,46.667,61.1255A48.5342,48.5342,0,0,0,270.94,331.16c20.8769-.0015,39.3564-12.5112,46.1806-17.7529,14.083,6.46,48.5791,26.3862,97.2207,64.8823v.0005A2.0655,2.0655,0,0,1,415.043,380.7206Z"/></g></svg>