<svg xmlns="http://www.w3.org/2000/svg" viewBox="0 0 512 512"><title>Flip-Flop</title><g id="Flip-Flop"><path d="M428.9019,277.53a15.9347,15.9347,0,0,0-14.7759-9.6513H367.6844l12.6154-45.85a5.5,5.5,0,0,0-4.4048-6.8853l-120.8613-20a5.4983,5.4983,0,0,0-6.2632,4.2163L233.319,267.8784h-136.2A15.4192,15.4192,0,0,0,81.7168,283.28a33.6888,33.6888,0,0,0,33.65,33.65H269.4736l.0176.001.0114-.001h40.2791l.0176.001.0114-.001h66.0829a68.26,68.26,0,0,0,50.1093-21.9927h0A15.9333,15.9333,0,0,0,428.9019,277.53Zm-204.164,28.4009H115.3672a22.6763,22.6763,0,0,1-22.65-22.65,4.4068,4.4068,0,0,1,4.4019-4.4018h133.72Zm40.3506,0H236.0142l22.3447-99.0879,28.0286,4.6382Zm40.3081,0H276.3647L297.2581,213.28l27.9873,4.6313Zm40.41,0H316.6728L336.116,219.71l31.9582,5.2885Zm72.1005-18.439a57.2308,57.2308,0,0,1-42.0131,18.439H357.2145l7.4433-27.0522H414.126a5.1362,5.1362,0,0,1,3.7807,8.6132Z"/></g></svg>