<svg xmlns="http://www.w3.org/2000/svg" viewBox="0 0 512 512"><title>Mobile_Phone02</title><g id="Mobile_Phone_02" data-name="Mobile Phone 02"><g id="Mobile_Phone_02-2" data-name="Mobile Phone 02"><path d="M314.0364,83.3936H197.5673a46.97,46.97,0,0,0-46.9214,46.9214v251.37a46.971,46.971,0,0,0,46.9214,46.9214H314.0364a46.9673,46.9673,0,0,0,46.9177-46.9214V130.315A46.97,46.97,0,0,0,314.0364,83.3936ZM340.8472,381.685a26.84,26.84,0,0,1-26.8108,26.8109H197.5673a26.8435,26.8435,0,0,1-26.8147-26.8109V130.315a26.8429,26.8429,0,0,1,26.8147-26.8109H314.0364a26.839,26.839,0,0,1,26.8108,26.8109Z"/><path d="M186.1163,293.7055H325.7641V123.8905H186.1163ZM206.2269,144.001h99.4353V273.5949H206.2269Z"/><rect x="187.2338" y="305.4371" width="31.281" height="20.1106"/><rect x="294.4831" y="305.4371" width="31.281" height="20.1106"/><rect x="240.1594" y="305.4371" width="31.2857" height="20.1106"/><rect x="187.2338" y="336.7132" width="31.281" height="20.1106"/><rect x="294.4831" y="336.7132" width="31.281" height="20.1106"/><rect x="240.1594" y="336.7132" width="31.2857" height="20.1106"/><rect x="187.2338" y="367.999" width="31.281" height="20.1106"/><rect x="294.4831" y="367.999" width="31.281" height="20.1106"/><rect x="240.1594" y="367.999" width="31.2857" height="20.1106"/></g></g></svg>