<?xml version="1.0" encoding="utf-8"?>
<!-- Generator: Adobe Illustrator 16.0.0, SVG Export Plug-In . SVG Version: 6.00 Build 0)  -->
<!DOCTYPE svg PUBLIC "-//W3C//DTD SVG 1.1//EN" "http://www.w3.org/Graphics/SVG/1.1/DTD/svg11.dtd">
<svg version="1.1" id="icons" xmlns="http://www.w3.org/2000/svg" xmlns:xlink="http://www.w3.org/1999/xlink" x="0px" y="0px"
	 width="64px" height="45px" viewBox="0 0 64 64" enable-background="new 0 0 64 64" xml:space="preserve">
<g>
	<path d="M44.498,0H19.502c-2.757,0-5,2.243-5,5v52.998c0,2.414,1.721,4.435,4,4.898V63c0,0.553,0.447,1,1,1s1-0.447,1-1v-0.002
		h22.996V63c0,0.553,0.447,1,1,1s1-0.447,1-1v-0.104c2.279-0.464,4-2.484,4-4.898V5C49.498,2.243,47.255,0,44.498,0z M16.502,6
		h30.996v26H16.502V6z M19.502,2h24.996c1.302,0,2.401,0.839,2.815,2H16.687C17.101,2.839,18.2,2,19.502,2z M44.498,60.998H19.502
		c-1.654,0-3-1.346-3-3V34h30.996v23.998C47.498,59.652,46.152,60.998,44.498,60.998z"/>
	<path d="M26.984,25h-6.973c-1.379,0-2.5,1.121-2.5,2.5s1.121,2.5,2.5,2.5h6.973c1.379,0,2.5-1.121,2.5-2.5S28.363,25,26.984,25z
		 M20.012,28c-0.275,0-0.5-0.225-0.5-0.5s0.225-0.5,0.5-0.5h6.973c0.275,0,0.5,0.225,0.5,0.5s-0.225,0.5-0.5,0.5H20.012z"/>
	<path d="M26.984,35h-6.973c-1.379,0-2.5,1.121-2.5,2.5s1.121,2.5,2.5,2.5h6.973c1.379,0,2.5-1.121,2.5-2.5S28.363,35,26.984,35z
		 M20.012,38c-0.275,0-0.5-0.225-0.5-0.5s0.225-0.5,0.5-0.5h6.973c0.275,0,0.5,0.225,0.5,0.5s-0.225,0.5-0.5,0.5H20.012z"/>
</g>
</svg>
