<?xml version="1.0" encoding="utf-8"?>
<!-- Generator: Adobe Illustrator 23.0.1, SVG Export Plug-In . SVG Version: 6.00 Build 0)  -->
<svg version="1.1" id="Layer_1" xmlns="http://www.w3.org/2000/svg" xmlns:xlink="http://www.w3.org/1999/xlink" x="0px" y="0px"
	 viewBox="0 0 64 64" style="enable-background:new 0 0 64 64;" xml:space="preserve">
<style type="text/css">
	.st0{fill:#231F20;}
</style>
<g id="XMLID_574_">
	<path id="XMLID_579_" class="st0" d="M31.94,21C22.05,21,14,29.05,14,38.94c0,9.89,8.05,17.94,17.94,17.94s17.94-8.05,17.94-17.94
		C49.87,29.05,41.83,21,31.94,21z M31.94,52.87C24.25,52.87,18,46.62,18,38.94S24.25,25,31.94,25s13.94,6.25,13.94,13.94
		S39.62,52.87,31.94,52.87z"/>
	<path id="XMLID_575_" class="st0" d="M6,0v64h52V0H6z M54,4v10H10V4H54z M10,60V18h44v42H10z"/>
</g>
</svg>
